<svg width="4141" height="196" viewBox="0 0 4141 196" fill="none" xmlns="http://www.w3.org/2000/svg">
<path d="M1970 61.5C1975.82 58.818 1976.5 58 1991.5 49C2059.5 31 2117.58 28.4673 2167.26 70.1453C2211.14 106.968 2298.19 194.236 2346.54 109.042C2355.04 94.0833 2361.02 76.5043 2369.93 60.8073C2418.34 -24.4847 2542.16 -17.6017 2587.61 66.1103C2593.63 77.2153 2599.39 89.2253 2606.02 100.049C2652.38 166.259 2713.14 99.1873 2757.6 70.0623C2820.29 27.3623 2891.41 21.9493 2950.42 73.3043C2978.68 97.5423 2998.58 126 3037.58 133.701C3082.87 143.952 3104.32 103.034 3125.26 69.2383C3166.57 2.56528 3267.42 3.4023 3311.02 67.0943C3337.57 105.889 3353.83 130.852 3405.66 141.166C3463.63 152.7 3521.08 138.055 3566.28 99.5553C3611.36 58.7903 3657.17 13.5683 3725.14 27.7693C3755.23 33.9173 3780.86 53.4853 3794.72 80.8943C3810.25 111.391 3813.51 131.847 3853.2 139.523C3919.32 152.314 3961.2 95.0943 4010.1 62.4963C4051.45 34.9353 4092.26 26.2223 4141 35.9393V59.7043V62.4233V88.1893C4107.03 78.5153 4080.14 80.5263 4048.86 97.9713C4026.06 110.688 4007.62 128.959 3987.35 145.114C3942.1 181.174 3888.37 202.53 3830.55 186.301C3802.61 178.457 3780.07 161.343 3765.89 135.939C3752.95 112.781 3747.6 86.0143 3718.52 77.7343C3699.08 72.2003 3677.36 77.7483 3660.16 87.3973C3635.51 101.231 3615.9 123.392 3594.05 141.085C3533.56 190.073 3457.02 207.933 3381.43 186.882C3355.08 179.544 3329.99 166.371 3310.25 147.272C3282.07 120.019 3269.45 75.3333 3225.87 68.8033C3213.44 66.9413 3201.62 69.0223 3190.64 75.1673C3146.52 99.8503 3144.48 165.088 3076.28 181.401C3056.96 186.021 3035.09 185.178 3015.99 179.901C2926.11 155.074 2908.46 42.0023 2795.48 105.577C2739.57 137.035 2697.15 193.843 2624.45 173.617C2595.53 165.573 2574.8 145.547 2560.41 119.866C2544.34 91.1873 2534.34 63.7673 2499.56 53.8373C2479.7 48.1683 2457.45 49.6603 2439.26 59.7663C2388.95 87.7173 2402.25 165.927 2326.66 189.635C2303.51 196.895 2279.77 195.546 2256.69 189.05C2229.63 181.436 2205.2 167.351 2183.43 149.764C2148.68 121.691 2125.1 92.602 2078.5 84C2039.77 76.851 2004 96 1979.5 116.5L1969 79.0633V76.0093L1970 61.5Z" fill="#462F1A"/>
<path d="M0 50.4863C5.61229 47.7986 12.1123 45.5549 17.9646 43.4133C74.4009 22.49 143.314 28.5278 191.228 70.2943C233.56 107.196 317.516 194.649 364.16 109.274C372.35 94.2832 378.122 76.6668 386.716 60.9365C433.408 -24.5367 552.84 -17.6391 596.678 66.2507C602.485 77.3793 608.042 89.4149 614.436 100.262C659.156 166.613 717.761 99.398 760.648 70.2111C821.11 27.4204 889.707 21.9959 946.629 73.46C973.886 97.7495 993.08 126.268 1030.7 133.985C1074.38 144.258 1095.07 103.253 1115.27 69.3854C1155.11 2.57074 1252.39 3.40953 1294.44 67.2368C1320.05 106.114 1335.74 131.13 1385.73 141.466C1441.64 153.025 1497.06 138.349 1540.65 99.7668C1584.14 58.9152 1628.32 13.5971 1693.88 27.8283C1722.91 33.9893 1747.63 53.5989 1761 81.0662C1775.98 111.628 1779.12 132.127 1817.4 139.82C1881.18 152.638 1921.57 95.2963 1968.74 62.6291C2005 35.5 2052.5 31.5 2096 38L2095 59.8311V62.5559V88.3767C2062.23 78.6821 2036.3 80.6974 2006.13 98.1794C1984.13 110.923 1966.35 129.233 1946.8 145.423C1903.15 181.559 1851.33 202.961 1795.56 186.697C1768.61 178.836 1746.87 161.686 1733.19 136.228C1720.71 113.021 1715.55 86.197 1687.5 77.8994C1668.75 72.3537 1647.8 77.9135 1631.21 87.583C1607.43 101.446 1588.52 123.654 1567.44 141.385C1509.09 190.477 1435.27 208.375 1362.36 187.279C1336.94 179.926 1312.74 166.725 1293.7 147.585C1266.52 120.274 1254.35 75.4933 1212.31 68.9495C1200.32 67.0835 1188.92 69.1689 1178.33 75.327C1135.78 100.062 1133.81 165.439 1068.03 181.787C1049.39 186.417 1028.3 185.572 1009.87 180.284C923.183 155.404 906.152 42.0915 797.176 105.802C743.253 137.326 702.337 194.255 632.209 173.986C604.319 165.925 584.322 145.857 570.443 120.121C554.944 91.381 545.301 63.9028 511.75 53.9517C492.597 48.2706 471.134 49.7658 453.591 59.8933C405.066 87.9037 417.888 166.28 344.98 190.038C322.652 197.314 299.752 195.962 277.488 189.452C251.391 181.822 227.826 167.707 206.826 150.082C173.307 121.95 150.511 92.2839 105.559 83.6637C68.2017 76.4995 33.1963 88.9419 0 105.724V79.2313V76.1708V50.4863Z" fill="#462F1A"/>
</svg>
